<?xml version="1.0" standalone="no"?><!DOCTYPE svg PUBLIC "-//W3C//DTD SVG 1.1//EN" "http://www.w3.org/Graphics/SVG/1.1/DTD/svg11.dtd"><svg t="1680881328949" class="icon" viewBox="0 0 1024 1024" version="1.1" xmlns="http://www.w3.org/2000/svg" p-id="40314" xmlns:xlink="http://www.w3.org/1999/xlink" width="200" height="200"><path d="M371.71425 972.767103c254.191404 77.897366 523.482297-64.997802 601.379662-319.289203S908.096111 129.995604 653.80471 52.098238c-0.59998-0.199993-1.099963-0.29999-1.699942-0.499983-254.2914-77.797369-523.3823 65.297792-601.179669 319.589192s65.397788 523.482297 319.689188 601.179669c0.399986 0.099997 0.699976 0.29999 1.099963 0.399987z" fill="#FFFFFF" p-id="40315"></path><path d="M23.326032 506.782861c0 279.790538 220.092557 506.482872 491.683372 506.482872s491.683372-226.79233 491.683372-506.482872S786.600219 0.29999 515.009404 0.29999 23.326032 227.09232 23.326032 506.782861" fill="#1A6BA8" p-id="40316"></path><path d="M23.326032 547.581482c0 257.291299 220.092557 465.884245 491.683372 465.884244s491.683372-208.592946 491.683372-465.884244S786.600219 81.797234 515.009404 81.797234 23.326032 290.390179 23.326032 547.581482z" fill="#1E72B0" p-id="40317"></path><path d="M755.401274 119.095972l-78.997328-28.799026 99.896622 88.297014-36.998749-2.299922-7.799736 15.799466c-19.199351-15.599472-43.298536-23.599202-67.997701-22.599236-12.199587 2.899902-21.999256 11.899598-25.899124 23.799195l5.899801 25.399141 76.397416 6.199791c5.999797 9.199689 18.499374 8.499713 18.499374 26.5991l28.599033-1.199959 19.899327-6.699774c23.699199 31.098948 40.198641 67.097731 48.19837 105.396436l-22.499239 16.199452-6.099794 19.899327-0.599979 69.597646s-14.19952 14.699503-16.399446 10.199655 0.59998-57.098069-7.699739-62.297893c-7.499746-5.199824-17.399412-5.599811-25.299145-0.999966-6.699773-16.099456-19.199351-29.099016-35.098813-36.298772-4.299855-9.899665-9.499679-19.299347-15.399479-28.299043-5.299821 0.89997-9.799669 4.399851-12.099591 9.199688 2.499915-8.699706 1.699943-17.999391-2.199925-26.099117l-35.4988-6.899767-24.599168-1.699942c-9.799669 2.899902-16.699435 11.799601-16.999425 21.999256l-13.89953 11.899598-8.299719 29.898988c-2.099929 7.899733 25.599134 20.39931 36.998748 17.599405 11.399614-2.899902 32.398904 28.799026 32.398905 28.799026l-5.599811 22.599236s-8.699706 15.899462-10.799635 12.599574l-20.999289-32.898887c-13.999527-7.899733-31.098948-7.899733-44.998479 0-3.499882 31.398938-4.399851 69.19766 0 84.897128s10.899631 22.499239 17.599405 20.299314c11.499611-6.699773 22.499239-14.299516 32.898888-22.599236 0 0 24.299178 65.597782 24.299178 69.097663s36.198776 30.498969 38.398701 30.498969c2.099929 0 9.899665 3.799871 11.299618-4.499848 1.399953-8.299719-4.299855-22.599236-1.099963-24.999154s7.69974 2.199926 9.199689 13.59954c1.899936 18.799364 2.099929 37.798722 0.59998 56.598086-4.399851 16.999425-26.399107 40.79862-26.399107 40.79862s-6.599777 24.899158-3.199892 26.099117c3.299888 1.199959 14.299516 33.99885 18.499374 42.998546s77.997362 238.491935 224.092422 46.898414c89.396977-117.09604 108.996314-278.290589 59.297994-411.286091-31.698928-84.797132-107.296371-129.395624-159.294612-236.691995l-70.197627-36.598763z" fill="#125192" p-id="40318"></path><path d="M128.022491 99.296642c0.59998 35.298806 15.699469 70.097629 52.698218 104.196476 38.798688-11.599608 79.997295-12.599574 119.295966-2.899902 42.498563-46.198438 88.197017-63.197863 135.795407-60.497954-33.298874 26.299111-57.498056 62.197897-69.297656 102.89652 4.899834 17.299415 17.499408 31.498935 34.098847 38.398702 33.298874 4.999831 70.197626 1.699943 106.596395 11.499611l-2.099929 28.299043c-22.499239 42.398566-69.597646 55.398127-107.796355 89.996956 4.999831 22.199249 4.199858 45.298468-2.199925 67.197728-11.799601-11.099625-27.599067-16.899428-43.798519-16.099456l-2.699909 1.699943c-46.798417 46.998411-7.299753 86.897061 66.397755 123.995806 19.499341 3.599878 39.598661 1.999932 58.198032-4.599844 38.998681-21.999256 135.695411-44.698488 153.794799 32.798891-9.199689 11.399614-22.499239 12.899564-36.998749 11.399614-4.999831 4.299855-14.7995 6.19979-19.799331 10.199655-57.098069 46.198438-116.096074 63.797842-184.79375 52.698218 13.29955 16.499442 29.499002 30.498969 47.798383 41.298604 38.398701 2.799905 60.297961 8.099726 62.69788 16.399445h-35.998783c64.697812 28.799026 127.895675 33.098881 188.993609 1.599946-0.89997 8.299719-4.099861 16.199452-9.199689 22.699232 20.39931-17.499408 38.998681-39.698657 60.497954-55.398126l3.299889 21.499273c35.19881-7.899733 64.097832-64.697812 85.697101-177.593994l14.899497 40.898616c13.999527-61.49792 13.699537-134.895438 7.199756-214.492746 20.09932 20.499307 34.89882 45.598458 43.298536 72.997532 2.799905-112.596192-29.099016-216.692672-107.696358-277.190626 17.299415-3.599878 43.598526 7.199757 94.496804 46.198437-28.09905-56.898076-77.797369-109.796287-146.395049-159.494606 93.896825 27.699063 178.393967 85.297115 243.891752 195.793379 0.59998-23.199215-53.498191-99.996618-103.996483-143.695141l2.899902-14.899496 59.397991 54.398161 3.199892-12.399581c77.897366 93.096852 94.196814 173.594129 95.49677 250.991512-0.399986 52.098238-9.799669 103.79649-27.699063 152.794832 33.498867-23.299212 48.398363-47.89838 32.798891-126.095735l11.899598-49.09834c20.499307 86.897061 12.499577 178.093977-22.599236 260.191201-19.399344 54.298164-67.197727 108.196341-100.796591 162.394508l42.998545-30.598965 46.198438-93.796828c5.299821 32.398904 0.099997 65.697778-14.699503 94.996787-33.398871 52.298231-79.497312 95.296777-133.995468 124.995773-0.59998 13.999527-8.599709 29.099016-28.39904 45.498461-66.397755 51.498258-157.094687 72.997531-270.290859 66.797741l16.399445 15.799466c-45.298468 0.59998-90.296946-6.599777-133.195495-21.29928l26.199114 17.399412C186.820503 956.86764 26.325931 789.973284 23.526025 562.780968L0.02682 605.87951c-0.799973-48.49836 16.499442-90.49694 24.599168-135.595414l3.899868-36.998749L11.726424 473.983971c7.899733-57.298062 19.79933-116.096074 63.697846-186.693687-6.099794-66.997734 12.699571-133.795475 52.598221-187.993642z" fill="#D96528" p-id="40319"></path><path d="M366.414429 242.991782c-15.899462 66.397755-10.499645 124.695783 30.798959 168.194312 7.999729-7.499746 16.599439-14.399513 25.499137-20.799296 23.699199-14.399513 52.198235-25.499138 82.197221-69.19766l2.199925-28.39904c-16.699435-6.19979-60.397957-8.799702-106.596395-11.399614-17.099422-6.19979-29.898989-20.599303-34.098847-38.398702z m-17.999391 221.7925C253.518247 460.484427 224.819218 522.982314 239.018738 628.278753c2.099929-56.298096 89.096987-124.695783 89.29698-125.995739 1.399953-14.7995 8.699706-28.499036 20.09932-37.998715v0.499983z m250.691522 163.894457c-20.199317-10.599642-49.398329-10.999628-90.996923 2.799905-92.196882 22.899226-168.294309 9.899665-231.792161-30.498968 10.199655 34.59883 38.798688 64.697812 103.296507 86.997058 33.99885 7.39975 69.397653 6.599777 102.996517-2.299922 19.999324-5.8998 38.698691-15.299483 55.398126-27.699064 20.39931-16.899428 40.698624-29.698996 60.897941-29.798992l0.199993 0.499983zM180.720709 203.593115l-97.496703 76.897399c13.699537-40.998613 38.698691-77.297386 72.197559-104.596462l25.299144 27.699063z" fill="#CB552E" p-id="40320"></path><path d="M367.214402 361.287782c-1.399953-4.499848 23.799195-14.599506 26.299111-14.699503 2.599912-0.099997 36.998749-6.299787 40.79862-4.499848l12.099591 5.599811c17.999391-5.599811 34.098847-15.899462 46.698421-29.898989l-0.59998 23.099219c-8.299719 13.399547-58.898008 44.498495-83.597173 59.497988-1.099963 0.59998-1.799939 2.099929-2.799905 2.799905-3.399885 2.199926-6.599777 4.899834-9.199689 7.999729-12.499577-14.999493-22.499239-31.798925-29.698996-49.898312z" fill="#EAB690" p-id="40321"></path><path d="M468.810966 284.890365l19.299348 8.499713 4.999831 24.399175-0.59998 23.099219 12.699571-20.899294c2.599912-8.299719 2.699909-17.099422 0.599979-25.499137-3.699875-3.799871-8.499713-6.19979-13.799533-6.699774l-23.199216-2.899902z" fill="#7B3330" p-id="40322"></path><path d="M226.619157 194.893409c24.599168-2.199926 49.398329-0.29999 73.397518 5.699807 40.79862-45.698455 86.797065-62.297893 135.795407-60.497954-32.598898 25.699131-56.498089 60.797944-68.59768 100.496602-11.599608 39.198674-11.599608 80.897264 0 120.095938 6.599777 18.699368 16.899428 35.898786 30.198979 50.498292 4.699841 22.199249 3.999865 45.298468-2.199926 67.197728-11.899598-11.899598-28.699029-17.399412-45.298468-14.999493-94.996787-5.499814-125.395759 56.198099-110.896249 164.394441-38.098712-99.196645-6.099794-173.094146 93.696831-219.492578-35.898786-54.69815-21.899259-133.295492-6.599777-183.393797-21.999256-15.999459-58.098035-24.399175-99.496635-29.998986z m400.286463 421.685739c-13.59954-51.198269-57.198066-64.697812-126.795712-44.498495-33.098881 18.499374-78.597342 24.099185-100.496601 7.799736-0.399986-0.29999-0.799973-0.59998-1.19996-0.799973-19.999324-9.399682-37.998715-22.499239-52.998207-38.698691-1.699943-1.799939-3.499882-3.399885-5.499814-4.799838l-6.599777 17.199419c-1.099963 39.898651 59.397991 73.897501 136.995367 60.097967 69.19766-12.699571 119.695952-8.599709 156.594704 3.699875z" fill="#F39919" p-id="40323"></path><path d="M759.201146 673.077238c13.89953-36.098779 24.099185-73.597511 30.298975-111.79622L803.999631 601.979642c12.799567-70.797606 15.199486-142.995164 7.199756-214.492746 19.899327 20.599303 34.798823 45.598458 43.298536 72.997531-0.59998-139.195293-41.198607-226.992323-107.596361-277.190626 22.299246-1.099963 52.298231 11.399614 94.396808 46.198438-34.498833-66.897738-87.597038-115.996077-146.295053-159.494606 77.297386 20.39931 158.094653 59.697981 243.891752 195.793378l-32.298908-86.597071-68.797673-71.997565 58.698015 53.398194 4.399851-11.499611c121.595888 149.294951 105.796422 278.290589 67.497717 403.786344L759.601132 673.077238h-0.399986z" fill="#ECAB46" p-id="40324"></path><path d="M875.697206 579.380406c49.798316-76.897399 63.597849-172.09418 42.998546-284.890365 76.797403 144.59511 77.097393 309.28954-30.798958 502.483007l-72.497549 45.198471 60.297961-262.791113z" fill="#F39919" p-id="40325"></path><path d="M715.502624 732.975212c36.998749-27.699063 59.297995-87.097055 73.897501-171.394204C809.999428 593.079943 815.799232 639.978357 806.99953 701.97626c32.298908-40.49863 40.298637-120.095939 47.2984-201.493186 52.998208 154.694768 20.299314 290.190186-68.797673 369.687498 4.899834-4.199858-46.998411-16.499442-29.798993-38.498698 38.598695-48.598356 49.998309-150.194921 39.898651-152.094856-36.998749 49.898313-60.697947 58.598018-79.797301 53.498191l-0.29999-0.099997z" fill="#F39919" p-id="40326"></path><path d="M612.10612 831.971864c94.496804-24.199182 150.094924-72.797538 180.293903-136.995367-1.799939 88.297014-34.59883 155.394745-113.196172 190.893544-47.89838-12.99956-66.397755-31.898921-67.097731-54.298163v0.399986z" fill="#F39919" p-id="40327"></path><path d="M771.900716 913.769098l-24.099185 24.299178 26.299111 0.59998c-31.298942 16.299449-65.897771 25.099151-101.096581 25.999121 29.499002-22.999222 62.99787-40.298637 98.896655-50.898279z" fill="#125192" p-id="40328"></path></svg>